<svg id="svg" xmlns="http://www.w3.org/2000/svg" xmlns:xlink="http://www.w3.org/1999/xlink" width="400" height="400" viewBox="0, 0, 400,400"><g id="svgg"><path id="path0" d="M192.246 50.083 C 161.881 56.897,156.292 98.831,183.815 113.350 C 212.058 128.249,243.206 100.558,231.867 70.630 C 226.108 55.432,208.682 46.395,192.246 50.083 M184.901 168.703 C 153.841 182.792,162.519 230.724,196.641 233.553 C 231.991 236.485,248.019 192.618,219.403 171.253 C 212.628 166.195,193.541 164.784,184.901 168.703 M183.932 286.500 C 160.716 298.218,159.574 330.445,181.843 345.452 C 191.244 351.788,208.748 351.811,218.020 345.500 C 246.430 326.165,233.897 282.000,200.000 282.000 C 196.066 282.000,188.836 284.025,183.932 286.500 " stroke="none" fill="#000000" fill-rule="evenodd"></path></g></svg>